PathFileType	4	(X/Y/Z)	C:\Users\Basilio\Documents\Thesis Gigler\squatting_fais\c3dfiles\075\SJ_pre5\markers_experimental.trc
DataRate	CameraRate	NumFrames	NumMarkers	Units	OrigDataRate	OrigDataStartFrame	OrigNumFrames
200.000000	200.000000	4	61	mm	200.000000	1102	1470
Frame#	Time	FHD			LBHD			RBHD			C7			T10			CLAV			LSHO			LUUPA			LMUPA			LDUPA			LLEP			LMEP			LRAD			LUL			LRFIN			RSHO			RUPA1			RMUPA			RDUPA			RLEP			RMEP			RRAD			RUL			RUFIN			LASI			RASI			USACR			LSACR			RSACR			LTHI1			LTHI2			LTHI3			LTHI4			LLFC			LMFC			LTIB1			LTIB2			LTIB3			LTIB4			LLMAL			LMMAL			LHEE			LMT1			LMT2			LMT5			RTHI			RTHI2			RTHI3			RTHI4			RLFC			RMFC			RTIB1			RTIB2			RTIB3			RTIB4			RLMAL			RMMAL			RHEE			RMT1			RMT2			RMT5			
		X1	Y1	Z1	X2	Y2	Z2	X3	Y3	Z3	X4	Y4	Z4	X5	Y5	Z5	X6	Y6	Z6	X7	Y7	Z7	X8	Y8	Z8	X9	Y9	Z9	X10	Y10	Z10	X11	Y11	Z11	X12	Y12	Z12	X13	Y13	Z13	X14	Y14	Z14	X15	Y15	Z15	X16	Y16	Z16	X17	Y17	Z17	X18	Y18	Z18	X19	Y19	Z19	X20	Y20	Z20	X21	Y21	Z21	X22	Y22	Z22	X23	Y23	Z23	X24	Y24	Z24	X25	Y25	Z25	X26	Y26	Z26	X27	Y27	Z27	X28	Y28	Z28	X29	Y29	Z29	X30	Y30	Z30	X31	Y31	Z31	X32	Y32	Z32	X33	Y33	Z33	X34	Y34	Z34	X35	Y35	Z35	X36	Y36	Z36	X37	Y37	Z37	X38	Y38	Z38	X39	Y39	Z39	X40	Y40	Z40	X41	Y41	Z41	X42	Y42	Z42	X43	Y43	Z43	X44	Y44	Z44	X45	Y45	Z45	X46	Y46	Z46	X47	Y47	Z47	X48	Y48	Z48	X49	Y49	Z49	X50	Y50	Z50	X51	Y51	Z51	X52	Y52	Z52	X53	Y53	Z53	X54	Y54	Z54	X55	Y55	Z55	X56	Y56	Z56	X57	Y57	Z57	X58	Y58	Z58	X59	Y59	Z59	X60	Y60	Z60	X61	Y61	Z61	

1103	5.51	-136.8523712158203	1495.708129882813	-911.4606933593752	-278.0550231933594	1371.5712890625	-983.4763793945315	-244.6607055664063	1410.209838867188	-829.2783813476565	-313.2203369140626	1281.744140625	-917.130065917969	-423.8573608398439	975.729675292969	-889.0425415039065	-177.441162109375	1190.059326171875	-912.1633300781252	-202.8176422119141	1224.4990234375	-1073.025634765625	-280.9733276367188	1070.84326171875	-1224.502197265625	-254.3103790283204	1029.668090820313	-1209.6435546875	-288.8748779296876	1008.433837890625	-1255.4853515625	-301.5104064941407	919.7667236328127	-1270.1650390625	-383.0606994628907	930.5842895507815	-1230.464599609375	-341.8472290039063	755.3756103515626	-1090.64208984375	-300.3294067382813	705.7442016601564	-1132.98974609375	-300.1018066406251	749.1826782226564	-1046.933349609375	-201.0089263916016	1238.731811523438	-755.9047851562501	-266.4400329589844	1113.98291015625	-583.5694580078126	-246.5596771240235	1067.419921875	-588.6723632812501	-279.6890258789063	1060.039184570313	-538.8050537109376	-291.2382507324219	991.485534667969	-509.532684326172	-373.3540039062501	981.358825683594	-525.6925048828126	-332.3655700683594	788.1990356445315	-668.6463012695314	-279.2668151855469	755.7739868164064	-621.6369018554689	-282.0132751464844	785.0318603515627	-715.0133666992189	-311.7862854003907	757.4196166992189	-992.7153320312502	-297.2051391601563	786.839294433594	-757.6569824218751	-448.438690185547	876.335144042969	-881.4576416015627	-462.7036743164064	844.5469360351565	-906.2841796875002	-459.973358154297	850.2544555664065	-848.9151611328127	-289.4109802246094	596.3412475585939	-1089.205688476563	-218.7109832763672	554.1461791992189	-1103.690673828125	-182.1881561279297	581.8336181640626	-1082.298583984375	-208.8432769775391	494.7111816406251	-1109.6181640625	-154.1876678466797	406.2551269531251	-1108.7666015625	-117.168685913086	395.0894775390626	-984.996765136719	-140.4989318847657	274.3292541503907	-1072.185424804688	-215.0595855712891	266.1070251464844	-1120.505737304688	-183.8236083984375	243.160873413086	-1097.877685546875	-228.6109771728516	181.1359252929688	-1067.38232421875	-373.0852355957032	94.0693817138672	-1077.827514648438	-330.5551147460938	95.03242492675783	-997.0750122070315	-429.884979248047	51.50282287597658	-1026.121215820313	-217.2998199462891	50.1526565551758	-1046.88134765625	-226.425765991211	54.62693786621095	-1095.126586914063	-273.7192382812501	41.48263931274415	-1140.79345703125	-318.9930419921876	640.0300292968751	-650.1497802734376	-256.6749267578126	620.3432617187501	-641.4873046875001	-233.3301544189454	642.5540161132814	-653.4724731445314	-230.1714782714844	541.4520263671876	-631.2667236328126	-156.3075103759766	413.9525451660157	-643.2409057617189	-98.036003112793	405.3152465820314	-757.7001342773439	-151.9468383789063	266.2755432128907	-702.3693847656251	-243.8966979980469	223.4848175048829	-658.5903930664064	-209.401351928711	203.317123413086	-685.2559204101564	-232.7777557373047	167.9075927734375	-726.8259887695314	-357.8992004394532	90.53126525878908	-707.3657836914064	-303.6376342773438	99.68216705322268	-781.029235839844	-400.705291748047	50.84555435180665	-773.1905517578127	-200.6651763916016	55.62091445922853	-702.2697143554689	-217.3860168457032	56.04923629760744	-664.2057495117189	-269.4582824707032	35.83271026611329	-625.7551269531251	
1104	5.515	-134.7508392333985	1485.79736328125	-911.0576171875002	-275.0556945800782	1360.627075195313	-983.3183593750002	-242.2889404296876	1399.544311523438	-828.9553222656252	-311.1622924804688	1272.930297851563	-917.3609008789065	-425.1844787597657	967.999938964844	-889.5051879882815	-175.7090606689453	1178.99169921875	-912.0537719726565	-200.1051635742188	1214.242919921875	-1072.509033203125	-280.1532287597657	1062.127319335938	-1225.0732421875	-254.3476715087891	1020.7119140625	-1209.596313476563	-288.0726623535157	999.3763427734377	-1255.7373046875	-301.5800476074219	911.2207641601565	-1270.16552734375	-383.3023681640626	923.1611328125002	-1230.470825195313	-343.9270935058594	748.2388305664064	-1089.227905273438	-302.1972351074219	698.1461791992189	-1130.668823242188	-301.8776855468751	742.9139404296876	-1045.2978515625	-198.5890655517579	1228.054931640625	-756.3562622070314	-266.5195922851563	1104.255004882813	-584.4395751953126	-246.8598175048829	1057.49072265625	-589.2009277343751	-280.0317077636719	1050.419555664063	-539.4288940429689	-292.2083740234376	981.9858398437502	-509.7771606445314	-374.2952575683594	972.3840942382815	-526.6469726562501	-333.2036437988282	779.1834716796877	-669.6170043945314	-280.4874267578126	746.8347167968751	-624.2943725585939	-283.3050842285157	777.2962036132815	-715.7434082031251	-313.2776184082032	751.2164916992189	-992.643981933594	-298.7482910156251	779.1101684570315	-758.1198730468751	-450.5108032226564	868.124450683594	-880.882995605469	-464.6893615722657	836.3737792968752	-905.3607177734377	-461.9040527343751	842.3732910156252	-847.914489746094	-290.1988220214844	592.2598266601564	-1089.076293945313	-218.5522918701172	551.3924560546876	-1103.63916015625	-183.4973754882813	579.6848144531251	-1081.984741210938	-208.5015563964844	492.8390502929689	-1110.2666015625	-146.107406616211	403.0869445800782	-1108.79248046875	-110.565185546875	392.3546447753907	-985.3229980468752	-139.6969451904297	270.7858581542969	-1072.235229492188	-213.4279174804688	262.1482543945313	-1119.786254882813	-183.6523895263672	239.4840698242188	-1096.948120117188	-228.6903228759766	178.3527984619141	-1065.762939453125	-373.1875915527344	93.66722106933595	-1077.39111328125	-330.7643432617188	94.33788299560548	-996.3262329101565	-430.1920166015626	51.12461853027345	-1025.411743164063	-217.5600585937501	50.1868362426758	-1046.76611328125	-226.7674865722657	54.6062355041504	-1094.963012695313	-273.8777465820313	41.5002555847168	-1140.648803710938	-320.3302612304688	631.7431640625001	-650.0696411132814	-257.5419616699219	613.0198974609376	-640.9805908203126	-234.5902404785157	635.3173828125001	-652.7706298828126	-230.5251464843751	534.0817260742189	-631.2216796875001	-158.6163787841797	410.769256591797	-645.5338134765626	-97.9899826049805	398.3812255859376	-756.7955322265626	-152.0955200195313	261.6853332519532	-701.8295898437501	-244.8973083496094	220.7246704101563	-658.0668334960939	-211.1819000244141	200.2316589355469	-684.9918823242189	-232.9274291992188	164.6104125976563	-726.0873413085939	-359.1576232910157	90.13760375976564	-707.2891235351564	-303.1767578125001	99.11127471923831	-780.4397583007815	-401.4683227539064	50.31850051879884	-772.987487792969	-201.4769287109376	55.62232589721681	-702.2578735351564	-218.1619567871094	56.10832977294923	-663.7548217773439	-269.8541564941407	35.42500305175782	-625.5338745117189	
1105	5.52	-132.46240234375	1476.485595703125	-910.594665527344	-272.6179504394532	1350.784790039063	-983.4060668945315	-239.8541412353516	1389.640380859375	-828.5937500000002	-309.3815612792969	1264.587158203125	-917.4874267578127	-426.4133300781251	960.661315917969	-889.9154052734377	-174.6215057373047	1168.785888671875	-912.2268066406252	-197.8652801513672	1204.682250976563	-1071.880615234375	-278.7115478515626	1053.973022460938	-1225.801147460938	-253.5905151367188	1012.627746582031	-1210.545654296875	-287.6745910644532	991.4084472656252	-1256.455810546875	-301.9619140625001	902.9160766601565	-1270.263061523438	-383.4834899902344	916.8457641601565	-1230.77001953125	-345.4035034179688	742.1362304687501	-1088.09521484375	-303.6273498535157	691.7446289062501	-1129.007202148438	-303.3515319824219	737.3657226562501	-1043.956420898438	-196.5173034667969	1218.082275390625	-757.1263427734376	-266.3335571289063	1095.540283203125	-584.7183227539064	-247.2058258056641	1048.697509765625	-589.3938598632814	-280.3969116210938	1041.957763671875	-539.5172119140626	-293.2678527832032	973.772155761719	-509.542205810547	-375.3308105468751	964.600280761719	-527.6096801757814	-334.1491699218751	771.4756469726565	-670.4721069335939	-281.1398620605469	739.1030883789064	-625.2580566406251	-284.4524230957032	769.7008056640627	-716.7543945312501	-314.2337036132813	744.8670654296876	-992.856872558594	-300.8083496093751	770.3023681640627	-758.7807617187501	-452.5237121582032	860.3458251953127	-880.5317382812502	-466.9302062988282	828.6558227539065	-904.4479980468752	-463.8820190429689	834.9770507812502	-847.238708496094	-291.2786254882813	586.9173583984376	-1089.1396484375	-219.4263610839844	546.9779052734376	-1103.94580078125	-184.6297302246094	575.8054199218751	-1082.48486328125	-207.5371246337891	488.5659484863282	-1110.848510742188	-143.5399169921875	399.4351196289064	-1108.67626953125	-106.0768051147461	387.2268371582032	-987.3155517578127	-138.834945678711	267.1565246582032	-1072.414916992188	-213.9475250244141	259.2304992675782	-1119.980834960938	-183.0037994384766	236.1077423095704	-1097.073974609375	-228.1936187744141	175.8347320556641	-1064.491455078125	-373.3776245117188	93.27679443359376	-1077.15185546875	-330.9192504882813	94.05267333984376	-996.0112304687502	-430.4255981445314	50.81331634521486	-1025.130737304688	-217.780746459961	50.08864212036134	-1046.777709960938	-227.2041015625001	54.64121246337892	-1095.00439453125	-274.2355957031251	41.48767089843751	-1140.653564453125	-320.9263305664063	624.2867431640626	-649.8212890625001	-257.9635620117188	606.1134033203126	-640.7849731445314	-235.0027465820313	628.6904907226564	-652.2355346679689	-230.4304199218751	527.3701171875001	-630.8164672851564	-160.1916961669922	407.5721435546876	-647.8227539062501	-101.6013259887696	393.1481323242189	-756.3290405273439	-150.7206115722657	259.1752929687501	-701.1294555664064	-244.0028991699219	219.8377838134766	-656.8419799804689	-210.9539337158204	198.6496887207032	-683.7158203125001	-233.6691131591797	163.1513824462891	-725.2101440429689	-359.8648681640626	89.7947463989258	-706.7385864257814	-304.1321716308594	98.99200439453128	-780.0859985351565	-402.0043029785157	49.97060012817384	-772.5833129882815	-202.3654785156251	55.85222244262697	-702.4137573242189	-218.5867309570313	55.9836769104004	-663.7421264648439	-270.0712585449219	35.17453384399415	-625.2615966796876	
1106	5.525	-130.1431884765625	1467.4658203125	-910.0559082031252	-269.9943542480469	1341.812377929688	-983.1955566406252	-237.4877319335938	1380.404541015625	-828.1195068359377	-307.9284973144532	1256.568969726563	-917.7041015625002	-427.325164794922	953.506042480469	-890.1339111328127	-173.8083953857422	1159.327026367188	-912.4993286132815	-196.6799774169922	1195.761474609375	-1071.546752929688	-276.7488403320313	1046.734497070313	-1226.65283203125	-252.7542266845704	1004.545959472656	-1210.951049804688	-286.0624084472657	984.1883544921877	-1257.291870117188	-302.2765808105469	895.7750244140627	-1271.053955078125	-383.3087768554688	911.3123779296877	-1231.378295898438	-346.5021972656251	736.8817138671876	-1087.511474609375	-304.4060974121094	686.0844726562501	-1127.692626953125	-304.6228332519532	732.0380249023439	-1042.729125976563	-194.7840270996094	1209.11474609375	-758.0018310546876	-265.7552490234376	1087.839599609375	-584.6849365234376	-247.5648193359376	1040.830444335938	-589.4551391601564	-280.9661865234376	1034.62890625	-539.5939941406251	-294.2738037109376	966.7173461914065	-509.242889404297	-376.2776184082032	957.9602661132815	-528.2869873046876	-335.3377380371094	764.3668823242189	-670.4674072265626	-281.6485900878907	732.5217895507814	-625.7736206054689	-285.4624633789063	762.7572631835939	-717.8981323242189	-315.9240417480469	739.3424682617189	-993.4149169921877	-302.5114746093751	762.5823364257814	-759.5632934570314	-454.1912841796876	853.125427246094	-880.384948730469	-468.7825317382814	821.2985839843752	-903.9797363281252	-465.6501770019532	827.852233886719	-846.8154907226565	-292.0439147949219	580.9785766601564	-1089.352416992188	-219.9586334228516	541.6986694335939	-1104.493530273438	-185.1675109863282	570.9317016601564	-1083.476318359375	-207.7940368652344	482.9364013671876	-1111.212646484375	-145.4801788330078	395.4803466796876	-1110.022827148438	-102.397201538086	382.3899230957032	-988.818786621094	-137.6601715087891	265.0308227539063	-1073.729858398438	-211.859603881836	257.1611938476563	-1119.980102539063	-181.8990631103516	233.8340759277344	-1097.966918945313	-228.0593872070313	174.3957672119141	-1065.548950195313	-374.0524902343751	93.48240661621095	-1076.838134765625	-330.9882812500001	93.86808013916017	-995.9528808593752	-430.588592529297	50.6764488220215	-1025.130249023438	-217.927963256836	50.10051345825197	-1046.84716796875	-227.3779907226563	54.64611053466798	-1095.031982421875	-274.3915710449219	41.46065521240235	-1140.738647460938	-321.1492004394532	618.1501464843751	-649.5473632812501	-258.2203674316407	600.1128540039064	-640.6185913085939	-235.1272735595704	622.8833007812501	-651.7672729492189	-230.1583709716797	521.6732788085939	-630.1968383789064	-159.5343627929688	405.4350891113282	-648.5667724609376	-106.5032348632813	390.7684631347657	-755.2258300781251	-149.5714111328125	257.8668823242188	-700.9967651367189	-242.6265258789063	219.0688018798829	-655.7864990234376	-209.6358489990235	197.6915130615235	-682.9475708007814	-233.4861450195313	162.3946838378907	-724.6065063476564	-360.0078735351563	89.73177337646486	-705.9599609375001	-304.4650268554688	99.03645324707034	-779.3287353515627	-402.4914855957032	50.02800750732423	-772.0734863281252	-202.1169738769532	55.59092712402345	-701.8173217773439	-218.7954559326172	56.03749847412111	-663.5133666992189	-270.1821899414063	34.90896606445313	-625.0006713867189	
